<mxfile host="app.diagrams.net" modified="2024-04-29T13:29:08.138Z" agent="Mozilla/5.0 (Windows NT 10.0; Win64; x64) AppleWebKit/537.36 (KHTML, like Gecko) Chrome/124.0.0.0 Safari/537.36" etag="BnTbAnACFyzj-xV1BibP" version="24.3.1" type="device">
  <diagram name="Page-1" id="iNRtXrszdMKdT1ehULRb">
    <mxGraphModel dx="1434" dy="746" grid="1" gridSize="10" guides="1" tooltips="1" connect="1" arrows="1" fold="1" page="1" pageScale="1" pageWidth="827" pageHeight="1169" math="0" shadow="0">
      <root>
        <mxCell id="0" />
        <mxCell id="1" parent="0" />
        <mxCell id="85UtZhq7umt5MPO57ebM-8" style="edgeStyle=orthogonalEdgeStyle;rounded=0;orthogonalLoop=1;jettySize=auto;html=1;entryX=0;entryY=0.5;entryDx=0;entryDy=0;" edge="1" parent="1" source="85UtZhq7umt5MPO57ebM-1" target="85UtZhq7umt5MPO57ebM-4">
          <mxGeometry relative="1" as="geometry" />
        </mxCell>
        <mxCell id="85UtZhq7umt5MPO57ebM-10" style="edgeStyle=orthogonalEdgeStyle;rounded=0;orthogonalLoop=1;jettySize=auto;html=1;entryX=0;entryY=0.5;entryDx=0;entryDy=0;" edge="1" parent="1" source="85UtZhq7umt5MPO57ebM-1" target="85UtZhq7umt5MPO57ebM-9">
          <mxGeometry relative="1" as="geometry" />
        </mxCell>
        <mxCell id="85UtZhq7umt5MPO57ebM-12" style="edgeStyle=orthogonalEdgeStyle;rounded=0;orthogonalLoop=1;jettySize=auto;html=1;entryX=0;entryY=0.5;entryDx=0;entryDy=0;" edge="1" parent="1" source="85UtZhq7umt5MPO57ebM-1" target="85UtZhq7umt5MPO57ebM-3">
          <mxGeometry relative="1" as="geometry" />
        </mxCell>
        <mxCell id="85UtZhq7umt5MPO57ebM-1" value="Visiteur" style="shape=umlActor;verticalLabelPosition=bottom;verticalAlign=top;html=1;outlineConnect=0;" vertex="1" parent="1">
          <mxGeometry x="60" y="230" width="30" height="60" as="geometry" />
        </mxCell>
        <mxCell id="85UtZhq7umt5MPO57ebM-2" value="Consulter les services" style="ellipse;whiteSpace=wrap;html=1;" vertex="1" parent="1">
          <mxGeometry x="360" y="60" width="120" height="80" as="geometry" />
        </mxCell>
        <mxCell id="85UtZhq7umt5MPO57ebM-3" value="Consulter les habitats" style="ellipse;whiteSpace=wrap;html=1;" vertex="1" parent="1">
          <mxGeometry x="360" y="160" width="120" height="80" as="geometry" />
        </mxCell>
        <mxCell id="85UtZhq7umt5MPO57ebM-4" value="Prendre contact" style="ellipse;whiteSpace=wrap;html=1;" vertex="1" parent="1">
          <mxGeometry x="360" y="270" width="120" height="80" as="geometry" />
        </mxCell>
        <mxCell id="85UtZhq7umt5MPO57ebM-6" style="edgeStyle=orthogonalEdgeStyle;rounded=0;orthogonalLoop=1;jettySize=auto;html=1;entryX=-0.008;entryY=0.638;entryDx=0;entryDy=0;entryPerimeter=0;exitX=0.5;exitY=0.5;exitDx=0;exitDy=0;exitPerimeter=0;" edge="1" parent="1" source="85UtZhq7umt5MPO57ebM-1" target="85UtZhq7umt5MPO57ebM-2">
          <mxGeometry relative="1" as="geometry">
            <mxPoint x="210" y="220" as="sourcePoint" />
          </mxGeometry>
        </mxCell>
        <mxCell id="85UtZhq7umt5MPO57ebM-9" value="Laisser un avis" style="ellipse;whiteSpace=wrap;html=1;" vertex="1" parent="1">
          <mxGeometry x="360" y="380" width="120" height="80" as="geometry" />
        </mxCell>
      </root>
    </mxGraphModel>
  </diagram>
</mxfile>
